<?xml version="1.0" encoding="UTF-8" standalone="no"?>
<svg
   width="350"
   height="350"
   viewBox="0 0 3500 3500"
   version="1.1"
   id="svg20"
   sodipodi:docname="sock3-removebg-preview.svg"
   inkscape:version="1.2.2 (732a01da63, 2022-12-09)"
   inkscape:export-filename="sock3-removebg-preview.png"
   inkscape:export-xdpi="96"
   inkscape:export-ydpi="96"
   xmlns:inkscape="http://www.inkscape.org/namespaces/inkscape"
   xmlns:sodipodi="http://sodipodi.sourceforge.net/DTD/sodipodi-0.dtd"
   xmlns="http://www.w3.org/2000/svg"
   xmlns:svg="http://www.w3.org/2000/svg">
  <defs
     id="defs24" />
  <sodipodi:namedview
     id="namedview22"
     pagecolor="#505050"
     bordercolor="#eeeeee"
     borderopacity="1"
     inkscape:showpageshadow="0"
     inkscape:pageopacity="0"
     inkscape:pagecheckerboard="0"
     inkscape:deskcolor="#d1d1d1"
     showgrid="false"
     inkscape:zoom="0.70710678"
     inkscape:cx="82.024386"
     inkscape:cy="125.1579"
     inkscape:window-width="1360"
     inkscape:window-height="749"
     inkscape:window-x="-4"
     inkscape:window-y="-4"
     inkscape:window-maximized="1"
     inkscape:current-layer="svg20" />
  <rect
     style="fill:#fefefe;stroke-width:20"
     id="rect1132"
     width="3500"
     height="3500"
     x="0"
     y="0"
     rx="0"
     ry="0"
     inkscape:label="white_background" />
  <rect
     style="display:none;fill:#fefefe;fill-opacity:1;fill-rule:nonzero;stroke-width:18.7221;image-rendering:auto"
     id="rect2962"
     width="3500"
     height="3500"
     x="0"
     y="0"
     rx="500"
     inkscape:label="rounded_background"
     ry="500" />
  <path
     id="path2904"
     style="display:inline;fill:#373f49;fill-opacity:1;fill-rule:nonzero"
     inkscape:label="sock"
     d="m 1601.2348,390.86057 c -72.1917,-2.52249 -116.6672,36.52046 -117.425,117.38701 l -3.2383,142.44958 -2.8574,172.20818 c 1.1405,66.39106 5.1274,105.40893 72.8574,101.79573 v 359.00393 360 l -56.9922,45.9961 c -85.9998,66.9998 -303.0121,235.9963 -457.0117,355.9961 -314.99941,242.9996 -368.00404,290.9963 -419.00394,380.9961 -49.9999,84.9998 -66.99219,153.0002 -66.99219,265 0,124.9998 21.99231,204.0041 81.99219,294.0039 117.99976,174.9996 324.00437,243.0037 559.00394,184.0039 93.9998,-23 798.0084,-506.0002 1103.0078,-595 135.9998,-40 175.9963,-62.0002 250.9961,-140 124.9998,-128.9998 161.9922,-263.0004 131.9922,-480 -14,-101.9998 -16.9922,-205.0047 -16.9922,-584.0039 V 910.69716 c 45.4923,-0.52214 69.8401,-55.43219 69.9005,-110.68646 l 0.4434,-340.83231 c -1.2288,-41.95159 -36.1263,-73.74913 -68.3517,-73.48123 z m 349.3367,117.33659 c 4.5,0 9,2.5 15,7.5 13,10.99998 15.0078,37.00413 13.0078,149.00391 -3,129.99974 -4.0039,136.00392 -24.0039,139.0039 -13,2 -24.0078,-4.00783 -28.0078,-13.00781 -3,-8.99998 -5.9961,-72.00014 -5.9961,-140 0,-96.9998 3,-125.00002 15,-135 6,-5 10.5,-7.5 15,-7.5 z m 310,0 c 4.5,0 9,2.5 15,7.5 13,10.99998 15.0078,37.00413 13.0078,149.00391 -3,129.99974 -4.0039,136.00392 -24.0039,139.0039 -13,2 -24.0078,-4.00783 -28.0078,-13.00781 -3,-8.99998 -5.9961,-72.00014 -5.9961,-140 0,-96.9998 3,-125.00002 15,-135 6,-5 10.5,-7.5 15,-7.5 z m 150,0 c 4.5,0 9,2.5 15,7.5 23,18.99996 18,283.00783 -5,288.00781 -9,1 -21.0078,-3 -28.0078,-10 -19,-18.99996 -16.9922,-262.00785 3.0078,-278.00781 6,-5 10.5,-7.5 15,-7.5 z m -611.0742,0.60547 c 25.1289,-0.9707 31.707,40.26977 29.082,161.89453 -3,121.99976 -4.0078,130.00783 -23.0078,133.00781 -12,2 -24.0078,-0.004 -28.0078,-4.0039 -4,-4 -6.9922,-69.00016 -6.9922,-145 0,-119.99976 1.9922,-138.00782 16.9922,-143.00782 4.375,-1.74998 8.3437,-2.75195 11.9336,-2.89062 z m 296.543,0.15625 c 6.2811,-0.51563 14.5273,2.48439 20.5273,7.73437 22,17.99998 16.0039,282.01174 -5.9961,287.01172 -9,1 -19.0078,-0.004 -23.0078,-4.0039 -11,-11.99998 -7.9922,-282.00393 3.0078,-289.00391 1.5,-1 3.375,-1.56641 5.4688,-1.73828 z m 463.5351,0.48828 c 4.75,-0.5 10,0.24611 15,2.24609 15,6 16.0039,23.00806 14.0039,148.00782 -3,122.99974 -5,141.00392 -20,144.0039 -9,2 -22.0078,-6.00394 -28.0078,-19.0039 -14,-25.99996 -8.0078,-255.00004 6.9922,-270 3,-3 7.2617,-4.75391 12.0117,-5.25391 z m -914.0039,1.25 c 19,0 21.0039,9.99243 29.0039,131.99219 7,102.99978 5.9961,136.00783 -4.0039,148.00781 -15,17.99996 -38.9961,19.99215 -45.9961,1.99219 -2,-7 -3.0117,-73.98844 -2.0117,-147.98828 3,-125.99976 4.0078,-134.00391 23.0078,-134.00391 z m 865,425 v 405.00004 405 h -23.0078 c -37,0 -132.9292,33.7643 -188.9844,70.9961 -59.3097,39.3935 -113.8595,92.0489 -146.778,155.1826 -35.2216,67.5509 -45.2025,147.6463 -46.2298,223.8213 -1.1506,85.3185 45,247.9922 45,251.9922 0,4 -926.0039,552.0156 -969.0039,566.0156 -56.9998,20 -60.9961,16.9842 -60.9961,-41.0156 0,-116.9998 -56.008,-253.0002 -138.00784,-335 -49.9999,-49 -173.98444,-121.9922 -208.98438,-121.9922 -6.99998,0 -13.00781,-5.9922 -13.00781,-11.9922 0,-42.9998 68.00456,-103.0082 389.00393,-348.0078 278.9994,-212.9996 511.0039,-401.0039 529.0039,-429.0039 15,-22 17.9922,-73.9967 21.9922,-405.9961 l 5,-380.00004 z m -20.625,920.37114 c 18.875,-1.625 29.1289,3.1289 24.6289,14.6289 -4,8 -11.0078,15 -18.0078,15 -6,0 -43.9883,15.0039 -82.9883,34.0039 -73.9998,36 -116,78.9963 -150,155.9961 -24,52.9998 -20.0039,199.0041 5.9961,274.0039 25,70.9998 24.9961,75.9961 5.9961,75.9961 -9,0 -20,-11 -25,-25 -50,-131.9998 -52.992,-270.0002 -6.9922,-360 31,-62.9998 101.0002,-128.9961 170,-160.9961 30,-14 57.4922,-22.0078 76.3672,-23.6328 z M 715.18085,2610.1894 c 9.7031,-4.125 36.13291,5.2539 92.38281,31.5039 60.99988,29 147.01568,119.0041 176.01562,184.0039 27.00002,58.9998 37.00002,210 15,210 -11.99998,0 -16.01564,-18.0041 -21.01562,-74.0039 -3,-42 -14.99221,-95 -26.99219,-125 -27.99994,-63.9998 -128.00795,-160 -193.00781,-185 -26.99996,-10 -46.99219,-23.9883 -46.99219,-32.9883 0,-4.25 1.375,-7.1406 4.60938,-8.5156 z"
     sodipodi:nodetypes="ccccccccccscccccscccccsccccssssccccssssccscssccsscssccccssscccssscsccscccsaaascscsscccccscscccscccssccscccss" />
</svg>
